<svg width="33" height="34" viewBox="0 0 33 34" fill="none" xmlns="http://www.w3.org/2000/svg">
<path d="M0.338654 4.85714C0.338654 3.56895 0.767823 2.33352 1.53175 1.42262C2.29568 0.511733 3.33178 0 4.41214 0H28.853C29.9334 0 30.9695 0.511733 31.7334 1.42262C32.4973 2.33352 32.9265 3.56895 32.9265 4.85714V29.1429C32.9265 30.4311 32.4973 31.6665 31.7334 32.5774C30.9695 33.4883 29.9334 34 28.853 34H4.41214C3.33178 34 2.29568 33.4883 1.53175 32.5774C0.767823 31.6665 0.338654 30.4311 0.338654 29.1429V4.85714ZM10.5224 2.42857V31.5714H28.853C29.3932 31.5714 29.9113 31.3156 30.2932 30.8601C30.6752 30.4047 30.8898 29.787 30.8898 29.1429V4.85714C30.8898 4.21305 30.6752 3.59533 30.2932 3.13988C29.9113 2.68444 29.3932 2.42857 28.853 2.42857H10.5224ZM8.48562 2.42857H4.41214C3.87196 2.42857 3.35391 2.68444 2.97194 3.13988C2.58998 3.59533 2.37539 4.21305 2.37539 4.85714V29.1429C2.37539 29.787 2.58998 30.4047 2.97194 30.8601C3.35391 31.3156 3.87196 31.5714 4.41214 31.5714H8.48562V2.42857Z" fill="#716156"/>
</svg>
